<svg width="24.000000" height="24.000000" viewBox="0 0 24 24" fill="none" xmlns="http://www.w3.org/2000/svg" xmlns:xlink="http://www.w3.org/1999/xlink">
	<desc>
			Created with Pixso.
	</desc>
	<defs/>
	<path d="M3 11.5C3 11.22 3.22 11 3.5 11L19.5 11C19.77 11 20 11.22 20 11.5C20 11.77 19.77 12 19.5 12L3.5 12C3.22 12 3 11.77 3 11.5Z" fill="#ffffff" fill-opacity="1.000000" fill-rule="evenodd"/>
	<path d="M15.64 7.64C15.84 7.45 16.15 7.45 16.35 7.64L20.2 11.5L16.35 15.35C16.15 15.54 15.84 15.54 15.64 15.35C15.45 15.15 15.45 14.84 15.64 14.64L18.79 11.5L15.64 8.35C15.45 8.15 15.45 7.84 15.64 7.64Z" fill="#ffffff" fill-opacity="1.000000" fill-rule="evenodd"/>
</svg>
