<svg width="16.000000" height="11.000000" viewBox="0 0 16 11" fill="none" xmlns="http://www.w3.org/2000/svg" xmlns:xlink="http://www.w3.org/1999/xlink">
	<desc>
			Created with Pixso.
	</desc>
	<defs/>
	<path id="Vector" d="M0.07 10.99C0.07 10.99 0.08 11 0.08 11L15.91 11C15.91 11 15.92 10.99 15.92 10.99C15.96 10.99 16 10.95 16 10.91L16 10.89L15.15 10.2L10.13 6.04L10.03 5.96L9.93 6.05L8.82 6.99C8.6 7.17 8.32 7.27 8.02 7.27C7.72 7.27 7.43 7.17 7.22 6.99L6.07 6.01L5.97 5.93L5.87 6.01L0.83 10.2L0.58 10.4L0 10.89L0 10.91C0 10.95 0.03 10.99 0.07 10.99ZM2.09 10.2L13.89 10.2L10.03 7.01L9.33 7.6Q9.22 7.7 9.09 7.78Q8.91 7.88 8.72 7.95Q8.58 8 8.45 8.03Q8.24 8.07 8.02 8.07Q7.79 8.07 7.57 8.03Q7.44 8 7.32 7.95Q7.1 7.88 6.91 7.75Q6.8 7.69 6.7 7.6L5.96 6.98L2.09 10.2ZM5.88 4.97L6.59 5.58L7.64 6.46C7.73 6.55 7.87 6.59 8.02 6.59L8.02 6.59C8.14 6.59 8.26 6.56 8.35 6.49L8.38 6.47C8.39 6.47 8.39 6.47 8.4 6.46L8.7 6.2L9.4 5.61L10.12 5L15.08 0.8L15.37 0.55L15.98 0.03C15.98 0.03 15.97 0.02 15.97 0.02C15.95 0 15.93 0 15.91 0L0.08 0C0.06 0 0.04 0 0.03 0.01L0.95 0.8L5.88 4.97ZM8.02 5.74L8.19 5.59L13.84 0.8L2.19 0.8L8.02 5.74ZM7.91 5.83Q7.91 5.83 7.91 5.83L7.91 5.83ZM11.17 6.04L15.2 9.36L16 10.02L16 0.9L15.2 1.58L11.17 4.99L10.65 5.44L10.55 5.52L10.65 5.6L11.17 6.04ZM11.79 5.51L15.2 8.32L15.2 2.63L11.79 5.51ZM5.35 5.41L5.45 5.49L5.35 5.57L4.82 6.01L0.8 9.35L0 10.02L0 0.87L0.8 1.55L4.83 4.96L5.35 5.41ZM4.2 5.48L0.8 2.6L0.8 8.31L4.2 5.48Z" fill="#FFFFFF" fill-opacity="1.000000" fill-rule="evenodd"/>
</svg>
