<svg width="16.010254" height="16.000000" viewBox="0 0 16.0103 16" fill="none" xmlns="http://www.w3.org/2000/svg" xmlns:xlink="http://www.w3.org/1999/xlink">
	<desc>
			Created with Pixso.
	</desc>
	<defs/>
	<path id="Vector" d="M13.51 15.54L15.76 13.3C15.95 13.11 16.03 12.88 16 12.62C15.95 12.4 15.81 12.21 15.57 12.06L12.3 10.13L12.29 10.13C12.17 10.06 12.02 10.03 11.83 10.03C11.56 10.03 11.32 10.12 11.12 10.3L10.15 11.28C10.13 11.31 10.09 11.33 10.04 11.34C9.99 11.36 9.95 11.37 9.93 11.37L9.72 11.33C9.58 11.3 9.37 11.22 9.11 11.08C8.84 10.94 8.51 10.73 8.12 10.44C7.72 10.16 7.27 9.75 6.76 9.23C6.24 8.72 5.84 8.27 5.56 7.88Q5.13 7.3 4.93 6.89C4.77 6.59 4.67 6.32 4.62 6.08C4.62 6.05 4.63 6 4.65 5.95C4.67 5.9 4.69 5.87 4.71 5.84L5.54 5.01C5.69 4.87 5.78 4.68 5.83 4.47C5.87 4.25 5.85 4.06 5.74 3.88L3.93 0.44Q3.83 0.28 3.7 0.17L3.7 0.17Q3.67 0.14 3.64 0.12Q3.57 0.07 3.5 0.04L3.5 0.04Q3.38 0 3.25 0Q3.15 0 3.05 0.02Q2.87 0.08 2.71 0.23L0.46 2.49Q0.29 2.64 0.17 2.88C0.09 3.05 0.04 3.21 0.01 3.37Q0.01 3.4 0 3.71Q-0.02 4.01 0.07 4.55Q0.15 5.08 0.39 5.82C0.55 6.31 0.78 6.86 1.1 7.46C1.42 8.07 1.83 8.72 2.35 9.44C2.87 10.15 3.53 10.89 4.32 11.67C5.31 12.68 6.25 13.47 7.13 14.05C8.01 14.62 8.8 15.05 9.5 15.34C10.19 15.63 10.78 15.81 11.26 15.88C11.74 15.96 12.09 16 12.3 16C12.39 16 12.47 15.99 12.52 15.99C12.58 15.98 12.61 15.98 12.63 15.98C12.78 15.96 12.94 15.9 13.11 15.83C13.27 15.75 13.4 15.65 13.51 15.54ZM12.51 14.98Q12.58 14.97 12.67 14.92Q12.74 14.89 12.76 14.87L12.78 14.85L14.85 12.8L12.03 11.13L12.01 11.13L11.84 11.03L11.83 11.03Q11.82 11.03 11.81 11.03Q11.8 11.03 11.79 11.04L10.86 11.99L10.86 11.99Q10.66 12.19 10.36 12.29Q10.13 12.37 9.93 12.37L9.83 12.37L9.52 12.31Q9.17 12.24 8.65 11.97Q8.18 11.73 7.53 11.25Q6.87 10.77 6.06 9.95Q5.22 9.13 4.75 8.47Q4.28 7.82 4.04 7.35Q3.74 6.77 3.64 6.27L3.62 6.17L3.62 6.08Q3.62 5.87 3.7 5.64Q3.8 5.34 4 5.14Q4 5.14 4 5.14L4.83 4.3Q4.83 4.3 4.84 4.3L3.19 1.17L1.14 3.21L1.12 3.23Q1.1 3.25 1.07 3.32Q1.03 3.4 1.01 3.47Q1.01 3.58 1 3.76Q0.99 3.96 1.05 4.39Q1.13 4.85 1.34 5.51Q1.55 6.17 1.99 7Q2.43 7.84 3.16 8.85Q3.89 9.85 5.03 10.97Q6.45 12.4 7.68 13.21Q8.92 14.02 9.88 14.42Q10.81 14.8 11.41 14.9Q12.06 15 12.3 15Q12.39 15 12.42 14.99Q12.47 14.99 12.51 14.98Z" fill="#FFFFFF" fill-opacity="1.000000" fill-rule="evenodd"/>
</svg>
