<svg width="11.000000" height="16.000000" viewBox="0 0 11 16" fill="none" xmlns="http://www.w3.org/2000/svg" xmlns:xlink="http://www.w3.org/1999/xlink">
	<desc>
			Created with Pixso.
	</desc>
	<defs/>
	<path id="Vector" d="M9.89 9.53C11.54 7.31 11.32 3.6 9.38 1.63C7.24 -0.55 3.75 -0.55 1.61 1.63C-0.33 3.6 -0.55 7.31 1.1 9.53L4.89 15.11L5.5 16L6.1 15.11L9.89 9.53ZM5.5 14.22L9.08 8.95L9.09 8.94Q9.58 8.28 9.81 7.38Q9.83 7.32 9.84 7.26Q10.04 6.43 9.98 5.55Q9.92 4.6 9.58 3.76Q9.24 2.91 8.67 2.33Q8.28 1.93 7.81 1.65Q7.51 1.46 7.18 1.33Q6.79 1.17 6.39 1.08Q5.95 1 5.5 1Q5.04 1 4.6 1.08Q4.2 1.17 3.81 1.33Q3.48 1.46 3.18 1.65Q2.71 1.93 2.32 2.33L2.32 2.33Q1.75 2.91 1.41 3.76Q1.07 4.6 1.01 5.55Q0.95 6.43 1.15 7.26Q1.16 7.32 1.18 7.38Q1.41 8.28 1.9 8.94L1.91 8.95L5.5 14.22ZM2.8 4.92Q2.73 5.22 2.73 5.53Q2.73 5.85 2.8 6.15Q2.85 6.4 2.95 6.64Q3.06 6.89 3.21 7.12Q3.36 7.35 3.55 7.54Q3.76 7.76 4.01 7.92Q4.22 8.05 4.45 8.15Q4.7 8.26 4.96 8.32Q5.25 8.38 5.55 8.38Q5.85 8.38 6.14 8.32Q6.4 8.26 6.65 8.15Q6.88 8.05 7.09 7.92Q7.33 7.76 7.55 7.54Q7.74 7.35 7.89 7.12Q8.04 6.89 8.14 6.64Q8.24 6.4 8.3 6.15Q8.36 5.85 8.36 5.53Q8.36 5.22 8.3 4.92Q8.24 4.67 8.14 4.43Q8.04 4.17 7.89 3.94Q7.74 3.72 7.55 3.53Q7.33 3.31 7.09 3.15Q6.88 3.01 6.65 2.91Q6.4 2.81 6.14 2.75Q5.85 2.69 5.55 2.69Q5.25 2.69 4.96 2.75Q4.7 2.81 4.45 2.91Q4.22 3.01 4.01 3.15Q3.76 3.31 3.55 3.53Q3.36 3.72 3.21 3.94Q3.06 4.17 2.95 4.43Q2.85 4.67 2.8 4.92ZM5.55 7.38C4.55 7.38 3.73 6.55 3.73 5.53C3.73 4.51 4.55 3.69 5.55 3.69C6.55 3.69 7.36 4.51 7.36 5.53C7.36 6.55 6.55 7.38 5.55 7.38Z" fill="#FFFFFF" fill-opacity="1.000000" fill-rule="evenodd"/>
</svg>
