<svg width="20.000000" height="20.000000" viewBox="0 0 20 20" fill="none" xmlns="http://www.w3.org/2000/svg" xmlns:xlink="http://www.w3.org/1999/xlink">
	<desc>
			Created with Pixso.
	</desc>
	<defs>
		<clipPath id="clip1_107">
			<rect id="Linked In" rx="-0.500000" width="19.000000" height="19.000000" transform="translate(0.500000 0.500000)" fill="white" fill-opacity="0"/>
		</clipPath>
	</defs>
	<rect id="Linked In" rx="-0.500000" width="19.000000" height="19.000000" transform="translate(0.500000 0.500000)" fill="#FFFFFF" fill-opacity="0"/>
	<g clip-path="url(#clip1_107)">
		<path id="Shape" d="M18.512 19.0129L1.48804 19.0129C0.671875 19.0129 0.0109863 18.434 0.0109863 17.72L0.0109863 2.28198C0.0109863 1.56897 0.671875 0.98999 1.48804 0.98999L18.512 0.98999C19.3269 0.98999 19.988 1.56897 19.988 2.28198L19.988 17.72C19.988 18.434 19.3269 19.0129 18.512 19.0129ZM3.30005 5.39099C3.30005 4.59204 3.95703 3.98499 4.96387 3.98499C5.96997 3.98499 6.59009 4.59204 6.60791 5.39099C6.60791 6.17102 5.96997 6.797 4.94409 6.797L4.92505 6.797C3.93799 6.797 3.30005 6.17102 3.30005 5.39099ZM17.0229 11.379C17.0229 8.87903 15.571 7.71594 13.636 7.71594C12.074 7.71594 11.376 8.505 10.9849 9.05994L10.9849 7.90698L8.04297 7.90698C8.08203 8.67102 8.04297 16.0439 8.04297 16.0439L10.9849 16.0439L10.9849 11.5C10.9849 11.2579 11.0039 11.014 11.082 10.8409C11.2939 10.355 11.7791 9.85205 12.5911 9.85205C13.656 9.85205 14.0811 10.598 14.0811 11.692L14.0811 16.0439L17.0229 16.0439L17.0229 11.379ZM10.9851 9.05994L10.9851 9.08704L10.9651 9.08704C10.9709 9.078 10.979 9.06897 10.9851 9.05994ZM3.4729 16.0439L6.41504 16.0439L6.41504 7.90698L3.4729 7.90698L3.4729 16.0439Z" clip-rule="evenodd" fill="#FFFFFF" fill-opacity="1.000000" fill-rule="evenodd"/>
	</g>
</svg>
