<svg width="14.000000" height="19.000000" viewBox="0 0 14 19" fill="none" xmlns="http://www.w3.org/2000/svg" xmlns:xlink="http://www.w3.org/1999/xlink">
	<desc>
			Created with Pixso.
	</desc>
	<defs>
		<clipPath id="clip1_114">
			<rect id="pininterest" rx="-0.500000" width="13.000000" height="18.000000" transform="translate(0.500000 0.500000)" fill="white" fill-opacity="0"/>
		</clipPath>
	</defs>
	<rect id="pininterest" rx="-0.500000" width="13.000000" height="18.000000" transform="translate(0.500000 0.500000)" fill="#FFFFFF" fill-opacity="0"/>
	<g clip-path="url(#clip1_114)">
		<path id="Shape" d="M7.42 0C2.48 0 0 3.52 0 6.45C0 8.23 0.67 9.81 2.12 10.41C2.36 10.5 2.57 10.41 2.64 10.15C2.69 9.96 2.81 9.51 2.85 9.32C2.92 9.06 2.9 8.97 2.71 8.74C2.29 8.25 2.02 7.61 2.02 6.71C2.02 4.1 3.98 1.76 7.13 1.76C9.92 1.76 11.46 3.46 11.46 5.72C11.46 8.7 10.13 11.22 8.16 11.22C7.08 11.22 6.26 10.33 6.52 9.23C6.84 7.92 7.44 6.51 7.44 5.56C7.44 4.71 6.98 4.01 6.04 4.01C4.93 4.01 4.04 5.15 4.04 6.68C4.04 7.66 4.37 8.32 4.37 8.32C4.37 8.32 3.23 13.11 3.03 13.95C2.63 15.63 2.97 17.68 3 17.88C3.02 18.01 3.18 18.04 3.25 17.94C3.35 17.81 4.67 16.18 5.12 14.56C5.25 14.1 5.85 11.72 5.85 11.72C6.21 12.4 7.27 13.01 8.39 13.01C11.73 13.01 13.99 9.97 13.99 5.92C13.99 2.85 11.38 0 7.42 0Z" fill="#FFFFFF" fill-opacity="1.000000" fill-rule="evenodd"/>
	</g>
</svg>
