<svg width="17.336670" height="28.830322" viewBox="0 0 17.3367 28.8303" fill="none" xmlns="http://www.w3.org/2000/svg" xmlns:xlink="http://www.w3.org/1999/xlink">
	<desc>
			Created with Pixso.
	</desc>
	<defs/>
	<path id="Vector" d="M13.29 24.5L14.8 27.98C15.08 28.63 15.85 28.93 16.52 28.66C17.19 28.4 17.51 27.66 17.23 27.02L15.72 23.53L13.29 24.5Z" fill="#333333" fill-opacity="1.000000" fill-rule="nonzero"/>
	<path id="Vector" d="M14.8 27.98C15.08 28.63 15.85 28.93 16.52 28.66C17.19 28.4 17.51 27.66 17.23 27.02L15.72 23.53L13.29 24.5L14.8 27.98Z" stroke="#000000" stroke-opacity="0" stroke-width="1.000000" stroke-linejoin="round"/>
	<path id="Vector" d="M14.3 26.82L16.73 25.86L14.3 26.82Z" fill="#333333" fill-opacity="1.000000" fill-rule="nonzero"/>
	<path id="Vector" d="M16.73 25.86L14.3 26.82L16.73 25.86Z" stroke="#000000" stroke-opacity="0" stroke-width="1.000000" stroke-linejoin="round"/>
	<path id="Vector" d="M11.97 10.06C11.97 11.92 10.4 13.42 8.46 13.42C6.52 13.42 4.95 11.92 4.95 10.06C4.95 8.21 6.52 6.71 8.46 6.71C10.4 6.71 11.97 8.21 11.97 10.06Z" fill="#333333" fill-opacity="1.000000" fill-rule="nonzero"/>
	<path id="Vector" d="M8.46 13.42C6.52 13.42 4.95 11.92 4.95 10.06C4.95 8.21 6.52 6.71 8.46 6.71C10.4 6.71 11.97 8.21 11.97 10.06C11.97 11.92 10.4 13.42 8.46 13.42Z" stroke="#000000" stroke-opacity="0" stroke-width="1.000000" stroke-linejoin="round"/>
	<path id="Vector" d="M10.21 10.06C10.21 10.99 9.43 11.74 8.46 11.74C7.49 11.74 6.7 10.99 6.7 10.06C6.7 9.14 7.49 8.38 8.46 8.38C9.43 8.38 10.21 9.14 10.21 10.06Z" fill="#333333" fill-opacity="1.000000" fill-rule="nonzero"/>
	<path id="Vector" d="M8.46 11.74C7.49 11.74 6.7 10.99 6.7 10.06C6.7 9.14 7.49 8.38 8.46 8.38C9.43 8.38 10.21 9.14 10.21 10.06C10.21 10.99 9.43 11.74 8.46 11.74Z" stroke="#000000" stroke-opacity="0" stroke-width="1.000000" stroke-linejoin="round"/>
	<path id="Vector" d="M6 12.45L1.2 23.53L0 28.5L0.81 28.83L3.63 24.5L4.3 22.95C3.78 21.73 4.38 20.35 5.65 19.84L8.43 13.42C7.48 13.41 6.63 13.04 6 12.45Z" fill="#333333" fill-opacity="1.000000" fill-rule="nonzero"/>
	<path id="Vector" d="M1.2 23.53L0 28.5L0.81 28.83L3.63 24.5L4.3 22.95C3.78 21.73 4.38 20.35 5.65 19.84L8.43 13.42C7.48 13.41 6.63 13.04 6 12.45L1.2 23.53Z" stroke="#000000" stroke-opacity="0" stroke-width="1.000000" stroke-linejoin="round"/>
	<path id="Vector" d="M10.92 12.45C10.29 13.04 9.43 13.41 8.49 13.42L12.62 22.94L15.05 21.98L10.92 12.45Z" fill="#333333" fill-opacity="1.000000" fill-rule="nonzero"/>
	<path id="Vector" d="M8.49 13.42L12.62 22.94L15.05 21.98L10.92 12.45C10.29 13.04 9.43 13.41 8.49 13.42Z" stroke="#000000" stroke-opacity="0" stroke-width="1.000000" stroke-linejoin="round"/>
	<path id="Vector" d="M9.78 5.03L9.78 1.25C9.78 0.56 9.18 0 8.46 0C7.73 0 7.14 0.56 7.14 1.25L7.14 5.03L9.78 5.03Z" fill="#333333" fill-opacity="1.000000" fill-rule="nonzero"/>
	<path id="Vector" d="M9.78 1.25C9.78 0.56 9.18 0 8.46 0C7.73 0 7.14 0.56 7.14 1.25L7.14 5.03L9.78 5.03L9.78 1.25Z" stroke="#000000" stroke-opacity="0" stroke-width="1.000000" stroke-linejoin="round"/>
	<path id="Vector" d="M8.46 6.71C8.69 6.71 8.91 6.73 9.12 6.77L9.12 5.03L7.8 5.03L7.8 6.77C8.02 6.73 8.23 6.71 8.46 6.71Z" fill="#333333" fill-opacity="1.000000" fill-rule="nonzero"/>
	<path id="Vector" d="M9.12 6.77L9.12 5.03L7.8 5.03L7.8 6.77C8.02 6.73 8.23 6.71 8.46 6.71C8.69 6.71 8.91 6.73 9.12 6.77Z" stroke="#000000" stroke-opacity="0" stroke-width="1.000000" stroke-linejoin="round"/>
</svg>
